<?xml version="1.0" encoding="UTF-8" standalone="no"?>
<!-- Created with Inkscape (http://www.inkscape.org/) -->

<svg
   width="247.09708mm"
   height="95.860741mm"
   viewBox="0 0 247.09708 95.860741"
   version="1.1"
   id="svg10553"
   xml:space="preserve"
   inkscape:version="1.2.1 (9c6d41e410, 2022-07-14)"
   sodipodi:docname="logo.svg"
   xmlns:inkscape="http://www.inkscape.org/namespaces/inkscape"
   xmlns:sodipodi="http://sodipodi.sourceforge.net/DTD/sodipodi-0.dtd"
   xmlns="http://www.w3.org/2000/svg"
   xmlns:svg="http://www.w3.org/2000/svg"><sodipodi:namedview
     id="namedview10555"
     pagecolor="#ffffff"
     bordercolor="#666666"
     borderopacity="1.0"
     inkscape:showpageshadow="2"
     inkscape:pageopacity="0.0"
     inkscape:pagecheckerboard="0"
     inkscape:deskcolor="#d1d1d1"
     inkscape:document-units="mm"
     showgrid="false"
     inkscape:zoom="0.46769781"
     inkscape:cx="766.52058"
     inkscape:cy="235.1946"
     inkscape:window-width="1366"
     inkscape:window-height="705"
     inkscape:window-x="-8"
     inkscape:window-y="-8"
     inkscape:window-maximized="1"
     inkscape:current-layer="layer1-7" /><defs
     id="defs10550" /><g
     inkscape:label="Capa 1"
     inkscape:groupmode="layer"
     id="layer1"
     transform="translate(-20.071519,-50.249881)"><g
       id="layer1-7"
       transform="matrix(0.13115279,0,0,0.13073048,24.881031,-49.398767)"
       style="fill:#ff0000"><g
         id="g11272"
         style="fill:#e8505b;fill-opacity:1"><g
           aria-label="Foody
Fast"
           transform="scale(0.9983887,1.0016139)"
           id="text11160"
           style="font-size:484.95px;line-height:0.65;font-family:'Bernard MT Condensed';-inkscape-font-specification:'Bernard MT Condensed, ';fill:#e8505b;fill-opacity:1;stroke-width:2.02062"><path
             d="m 891.10581,781.85444 h 10.41885 v 89.98095 h -17.04902 q 0,-36.93955 -20.60091,-52.56782 Q 843.51062,803.6393 803.01919,803.6393 H 785.023 q -2.60471,25.81033 -2.60471,46.41123 0,45.22727 15.62827,64.88101 15.62827,19.65373 54.46216,19.65373 h 19.65373 v 16.33865 l -87.13945,1.89434 v 93.29604 q 0,36.466 35.99238,37.6499 v 11.366 H 705.22409 v -11.366 q 21.07449,-0.2368 28.41504,-8.0509 7.57735,-8.0509 7.57735,-29.599 V 841.05244 q 0,-22.96883 -8.05093,-29.8358 -8.05093,-7.10376 -27.94146,-7.57734 v -11.36602 h 179.25155 q 1.65754,0 3.78867,-3.07829 2.36792,-3.31509 2.8415,-7.34055 z"
             style="font-weight:300;font-family:'Footlight MT Light';-inkscape-font-specification:'Footlight MT Light, Light';text-align:center;text-anchor:middle;fill:#e8505b;fill-opacity:1"
             id="path11216" /><path
             d="m 1026.314,872.07219 q 44.7537,0 71.5112,28.17824 26.9943,27.94146 26.9943,74.58948 0,55.40929 -37.4131,91.40169 -37.4132,35.7556 -82.4036,35.7556 -44.99052,0 -71.03764,-28.415 -26.04712,-28.6519 -26.04712,-74.35271 0,-54.46216 36.93955,-90.69134 37.17635,-36.46596 81.45641,-36.46596 z m -20.1273,18.46977 q -32.20369,0 -49.25272,22.96883 -17.04902,22.96882 -17.04902,57.54045 0,42.62256 26.7575,76.24706 26.99428,33.3876 62.74984,33.3876 26.5207,0 44.7537,-22.0216 18.4698,-22.0217 18.4698,-57.5405 0,-32.91406 -14.6811,-58.96118 -14.6811,-26.28391 -33.6245,-38.83389 -18.9433,-12.78677 -38.1235,-12.78677 z"
             style="font-weight:300;font-family:'Footlight MT Light';-inkscape-font-specification:'Footlight MT Light, Light';text-align:center;text-anchor:middle;fill:#e8505b;fill-opacity:1"
             id="path11218" /><path
             d="m 1263.8164,872.07219 q 44.7537,0 71.5112,28.17824 26.9943,27.94146 26.9943,74.58948 0,55.40929 -37.4131,91.40169 -37.4132,35.7556 -82.4037,35.7556 -44.9904,0 -71.0376,-28.415 -26.0471,-28.6519 -26.0471,-74.35271 0,-54.46216 36.9396,-90.69134 37.1763,-36.46596 81.4564,-36.46596 z m -20.1273,18.46977 q -32.2037,0 -49.2527,22.96883 -17.0491,22.96882 -17.0491,57.54045 0,42.62256 26.7575,76.24706 26.9943,33.3876 62.7499,33.3876 26.5207,0 44.7537,-22.0216 18.4698,-22.0217 18.4698,-57.5405 0,-32.91406 -14.6811,-58.96118 -14.6811,-26.28391 -33.6245,-38.83389 -18.9433,-12.78677 -38.1235,-12.78677 z"
             style="font-weight:300;font-family:'Footlight MT Light';-inkscape-font-specification:'Footlight MT Light, Light';text-align:center;text-anchor:middle;fill:#e8505b;fill-opacity:1"
             id="path11220" /><path
             d="m 1513.8688,792.27328 81.93,-31.25654 v 9.70847 q -10.182,4.02547 -10.182,16.10186 v 264.73343 q 0,19.6538 16.8122,19.6538 7.5773,0 18.7066,-5.2095 v 12.0764 l -60.382,23.6792 h -11.1292 v -76.4838 q -40.7283,52.0942 -59.9084,64.4074 -18.9434,12.3132 -37.4131,12.3132 -31.0198,0 -49.9632,-27.9414 -18.9433,-28.1783 -18.9433,-64.4075 0,-49.72628 36.7027,-93.76959 36.7028,-44.28011 81.2197,-44.28011 9.9453,0 22.0217,3.0783 12.0763,3.07829 26.2839,9.47168 v -63.69705 q 0,-20.12732 -15.3915,-20.12732 -8.0509,0 -20.3641,4.97263 z m 35.7556,123.36863 q -16.5755,-13.73393 -32.4405,-20.36411 -15.8651,-6.86697 -31.0198,-6.86697 -30.0726,0 -48.5423,31.25655 -18.233,31.01975 -18.233,71.0376 0,33.38762 15.6282,56.83012 15.6283,23.2056 38.3603,23.2056 32.2038,0 55.6462,-42.149 23.4424,-42.14898 23.4424,-84.29795 0,-16.10186 -2.8415,-28.65184 z"
             style="font-weight:300;font-family:'Footlight MT Light';-inkscape-font-specification:'Footlight MT Light, Light';text-align:center;text-anchor:middle;fill:#e8505b;fill-opacity:1"
             id="path11222" /><path
             d="m 1618.7676,878.22878 h 76.7206 v 11.36601 q -8.9981,0.47359 -8.9981,5.68301 0,2.84151 1.4208,5.9198 l 58.7244,146.1007 23.2056,-61.80275 q 15.6283,-41.67539 15.6283,-69.14326 0,-14.44431 -8.0509,-20.6009 -7.8142,-6.1566 -25.8104,-6.1566 v -11.36601 h 98.7423 v 11.36601 q -15.1547,0.94717 -23.4424,9.94527 -8.0509,8.7613 -20.8377,38.83389 l -81.2197,210.74485 q -18.7065,48.5424 -70.564,53.0414 l -38.3603,-45.2272 12.7868,-10.1821 q 18.7066,23.2056 41.6754,23.2056 12.0764,0 22.2584,-7.5773 10.1821,-7.5774 15.3915,-17.9962 5.2094,-10.1821 15.8651,-38.1235 l 3.7886,-9.7085 -64.6442,-160.78177 q -10.4188,-26.04712 -19.8905,-35.99238 -9.4717,-9.94526 -24.3896,-10.18206 z"
             style="font-weight:300;font-family:'Footlight MT Light';-inkscape-font-specification:'Footlight MT Light, Light';text-align:center;text-anchor:middle;fill:#e8505b;fill-opacity:1"
             id="path11224" /><path
             d="m 1089.6559,1152.4491 h 10.4189 v 89.9809 h -17.0491 q 0,-36.9395 -20.6009,-52.5678 -20.3641,-15.6283 -60.8555,-15.6283 h -17.99621 q -2.60471,25.8104 -2.60471,46.4113 0,45.2272 15.62827,64.881 15.62825,19.6537 54.46215,19.6537 h 19.6537 v 16.3387 l -87.13941,1.8943 v 93.296 q 0,36.466 35.99241,37.65 v 11.366 H 903.77419 v -11.366 q 21.07448,-0.2368 28.41503,-8.051 7.57735,-8.0509 7.57735,-29.599 v -205.0618 q 0,-22.9689 -8.05093,-29.8358 -8.05093,-7.1038 -27.94145,-7.5774 v -11.366 h 179.25151 q 1.6576,0 3.7887,-3.0783 2.3679,-3.3151 2.8415,-7.3405 z"
             style="font-weight:300;font-family:'Footlight MT Light';-inkscape-font-specification:'Footlight MT Light, Light';text-align:center;text-anchor:middle;fill:#e8505b;fill-opacity:1"
             id="path11226" /><path
             d="m 1139.1454,1278.1856 q 54.4622,-35.9924 102.531,-35.9924 22.4952,0 32.4405,9.9453 9.9452,9.9453 9.7084,33.6245 v 147.995 q 0,10.6556 9.7085,10.6556 9.4717,0 33.3877,-21.7849 v 14.6811 q -35.9924,35.282 -58.7244,35.282 -20.3641,0 -20.3641,-22.732 v -35.0452 q -29.599,30.3094 -50.2,44.0433 -20.3641,13.7339 -38.597,13.7339 -17.7594,0 -30.3094,-13.7339 -12.55,-13.9707 -12.55,-33.8612 0,-51.3839 131.6564,-110.8187 v -28.415 q 0,-13.0236 -7.8142,-21.5481 -7.8141,-8.5245 -21.5481,-8.5245 -23.4424,0 -41.6753,22.732 -18.233,22.732 -21.7849,56.5933 h -15.8651 z m 111.2923,55.1726 q -43.8066,8.998 -71.0376,31.0197 -27.2311,21.7849 -27.2311,44.7537 0,14.6811 8.9981,23.4424 9.2349,8.7613 23.916,8.7613 27.2311,0 45.9376,-28.6518 18.9434,-28.8887 19.417,-79.3253 z"
             style="font-weight:300;font-family:'Footlight MT Light';-inkscape-font-specification:'Footlight MT Light, Light';text-align:center;text-anchor:middle;fill:#e8505b;fill-opacity:1"
             id="path11228" /><path
             d="m 1365.2818,1392.7929 q 1.8943,30.783 17.5226,47.832 15.8651,17.049 37.8867,17.049 18.233,0 29.8358,-11.1292 11.6028,-11.1292 11.6028,-28.1782 0,-15.1547 -8.7613,-25.5736 -8.9981,-10.182 -35.282,-26.7575 -18.7066,-11.8396 -34.0981,-22.0216 -15.3914,-10.4189 -21.3112,-21.0745 -6.1566,-10.6556 -6.1566,-21.7849 0,-22.9688 21.0745,-40.965 21.3112,-17.9962 56.3565,-17.9962 21.548,0 46.4112,9.4717 v 62.0395 h -17.049 q -0.2368,-26.2839 -14.6811,-42.149 -14.4444,-15.865 -33.1509,-15.865 -13.2604,0 -20.8377,8.5245 -7.3406,8.2877 -7.3406,19.6537 0,12.7868 8.5245,22.0217 8.2878,9.4717 33.3877,25.0999 43.0962,27.2311 53.9886,38.3603 10.8924,11.3661 10.8924,30.0726 0,29.599 -26.2839,51.3839 -26.0471,21.7848 -60.1452,21.7848 -25.3367,0 -58.4876,-14.2075 v -65.5914 z"
             style="font-weight:300;font-family:'Footlight MT Light';-inkscape-font-specification:'Footlight MT Light, Light';text-align:center;text-anchor:middle;fill:#e8505b;fill-opacity:1"
             id="path11230" /><path
             d="m 1600.4162,1174.2339 v 12.3132 q -14.9179,3.5519 -14.9179,33.6245 0,20.3641 3.3151,28.415 3.5519,8.0509 12.0764,13.2604 8.7613,5.2094 23.2056,5.2094 h 19.6538 v 10.6556 h -58.0141 v 152.0205 q 0,7.3405 2.8415,11.1292 3.0783,3.7887 8.9981,3.7887 11.6028,0 34.5716,-18.9434 2.6048,-2.1311 4.0255,-3.0783 v 13.734 q -40.2546,36.2291 -64.1706,36.2291 -11.1292,0 -16.8123,-8.5245 -5.4462,-8.7613 -5.4462,-25.8103 v -160.545 h -36.2291 v -10.6556 q 20.8376,0 29.599,-8.2877 8.7613,-8.2877 8.7613,-29.1254 v -35.7556 z"
             style="font-weight:300;font-family:'Footlight MT Light';-inkscape-font-specification:'Footlight MT Light, Light';text-align:center;text-anchor:middle;fill:#e8505b;fill-opacity:1"
             id="path11232" /></g><g
           style="fill:#e8505b;fill-opacity:1;stroke-linejoin:miter"
           id="g516"
           transform="translate(-211.35654,21.636664)"><path
             d="m 591.7113,965.7253 36.8179,26.539 7.78696,-4.25344 0.008,0.003 q 5.22106,5.83259 24.69751,35.79904 3.97275,5.5968 8.03785,10.255 3.6781,4.2281 8.80114,9.2755 26.74246,24.8882 29.10806,28.0544 2.0299,1.9344 7.056,7.9276 h -0.009 l -49.88111,6.0062 1.45957,13.0477 2.37625,-0.2866 h 0.009 q 3.2279,12.6611 6.276,24.404 h -0.009 l -72.95444,8.8169 v 0 q 6.35194,-7.5883 9.94434,-14.4568 11.9629,-23.0918 1.7217,-42.1613 -8.0807,-14.452 -34.10867,-24.1937 h -0.008 l 1.552,-2.9238 q -26.06834,-12.0426 -61.8581,-22.4072 -6.16403,-1.8341 -14.52433,-4.1691 h -0.007 q 35.6597,-21.85359 48.58514,-28.80422 9.1363,-5.32044 27.3027,-12.45453 3.98097,-1.90764 11.8191,-14.03294 z m -92.715,136.7597 51.45036,1.4689 0.21434,-0.4029 v 0 l 8.0034,0.386 q -21.07285,12.664 -39.0986,35.2215 h -10e-5 z m -72.9391,0.7925 h -1.6e-4 q 10.16812,15.3874 27.03158,45.959 h -0.007 l -11.27894,1.3616 h -1e-4 q -0.33272,-0.134 -0.69148,-0.2505 h -0.006 l -15.05398,-47.0805 z m 33.80706,58.3591 q 4.23776,7.8199 8.84036,16.4679 l 3.8667,-2.3897 h 0.007 q 4.60898,13.9695 3.9897,16.3892 -5.62977,10.0507 -11.5844,32.9228 v 0 l -19.707,-61.6334 h -1.2e-4 l 14.58162,-1.766 z m -24.64726,13.3907 19.48283,60.9257 h -0.007 q -11.17635,18.0861 -11.44375,20.4818 -0.88074,2.2516 -1.08496,4.1984 v 0 q -8.43958,-14.8132 -20.73574,-28.1357 -7.40165,-7.5479 -15.33558,-13.8184 h -0.006 z m 242.38395,-39.7117 q 2.28445,8.7004 4.46131,16.8494 h -0.009 l -109.32934,113.8464 v 0 q -1.1742,-0.4415 -2.64575,-0.6944 0.29089,-0.296 -15.46619,-1.1519 -3.80029,-0.3949 -6.29382,-1.0137 -4.72354,-1.1094 -8.26694,-3.7456 -3.98685,-2.9631 -6.918,-8.2933 -0.5908,-0.2369 -8.35095,-19.4527 -1.88845,-4.1012 -3.80125,-6.7385 -1.735,-2.5421 -3.96486,-3.9121 h -0.007 q 4.54614,-4.8683 11.9718,-11.4274 2.04968,-2.1803 3.04164,-5.0377 1.04234,-2.7401 0.5713,-7.5974 h -0.007 q 2.9025,-3.4407 5.9749,-6.7402 5.07224,-5.4615 11.4602,-11.2906 26.94127,-23.3103 37.00316,-32.6615 h -0.008 l 90.57534,-10.9517 z m -297.80939,83.653 q 3.7407,2.094 7.36258,4.4588 h -0.006 l -27.99872,41.956 20.6363,-46.4175 z m 321.02961,-0.1972 q 5.17823,17.0732 9.29467,28.691 5.53296,16.066 11.6178,30.1731 v 0 l -40.15918,-45.4153 h -0.009 q 9.24826,-7.712 19.2468,-13.4533 z m -253.96179,50.8264 q 2.54885,1.573 6.96902,3.0412 h -0.007 q -0.94229,4.2605 -1.94901,8.8635 v 0 q -2.22689,-6.0648 -5.01983,-11.9094 z m -92.83458,-61.4292 q 12.04017,3.5141 23.07145,9.3349 h -0.006 l -27.97216,62.9109 v 0 l -11.43537,17.1347 v 0 l 16.33631,-89.3884 z m 43.7504,22.9822 q 4.5429,3.6573 8.87937,7.7874 h -0.006 l -53.58832,59.213 44.70908,-67.0028 z m 281.46955,3.0555 46.71215,52.8232 h -0.01 q 4.3154,9.2435 8.89147,17.5625 0.98703,1.8253 2.07153,3.7456 v 0 l -76.2095,-53.6913 h -0.009 q 6.6158,-9.0045 15.0016,-17.2682 1.7569,-1.6274 3.54196,-3.1799 z m -424.45358,-14.778 50.79413,82.2236 v 0 l -76.3741,-63.3166 h -0.004 q 0.0396,-0.041 0.079,-0.08 12.07627,-11.1862 25.50069,-18.8328 z m 27.77343,-11.6361 26.76182,94.0933 h -1.6e-4 l -51.8558,-83.944 h -0.005 q 12.01726,-6.4682 25.09381,-10.154 z m 476.1511,-5.6021 0.99536,110.2971 -35.77526,-104.0322 h -0.009 q 16.51721,-5.4253 34.77941,-6.2677 z m -437.68018,0.739 q 15.71488,0.6097 30.03186,4.4148 h -0.006 l -17.66181,96.6265 h -1.5e-4 l -0.32245,0.4814 v 0 q -0.28387,-0.09 -0.5704,-0.1711 h -0.005 L 321.03035,1202.92 Z m 446.01808,-0.8861 0.2848,0.01 q 17.6969,0.6741 33.6219,5.3986 h -0.0102 l -34.5426,106.9503 h -4e-4 q -1.71203,-0.53 -3.6163,-0.6567 h -0.01 l -1.00915,-111.6683 h -0.009 q 2.6278,-0.068 5.2909,-0.04 z m -449.10408,0.8719 11.39378,100.6726 v 0 q -1.57346,-0.2564 -3.2193,-0.3421 h -0.0395 q -0.0943,0 -0.18838,0 -6.67966,-0.1319 -12.3057,2.4509 h -1.5e-4 L 285.52002,1207 h -0.005 q 15.48489,-3.9585 32.42923,-4.0863 z m 403.09148,6.5298 36.1449,105.1085 h -0.01 q -0.57645,0.1967 -1.13284,0.4447 h -0.002 q -17.9464,-29.2099 -28.261,-57.361 -6.2445,-15.606 -15.05884,-44.8892 h -0.009 q 4.10133,-1.8082 8.31923,-3.3098 z m -233.55492,70.2247 q 8.70982,1.5104 16.35832,2.7692 h -0.007 l -3.71475,26.6179 h -0.007 q -4.0849,0.1034 -7.959,0.9417 h -1.5e-4 l -7.32092,-22.8966 h -0.007 q 1.35956,-3.8685 2.651,-7.4424 z m -260.43945,-39.1524 80.45432,66.6977 v 0 l -100.06856,-41.3716 h -0.004 q 8.01073,-13.4163 19.61424,-25.3311 z m 576.83617,-32.1628 q 18.7925,6.0778 35.06544,17.9126 h -0.0102 l -67.88624,90.5644 h -3.6e-4 q -0.8704,-0.6837 -1.812,-1.2167 h -0.0102 l 34.64355,-107.2678 z m -326.16252,99.5872 1.4693,4.5942 h -1.6e-4 l -2.98376,-0.047 h -2.8e-4 q 0.76197,-2.3122 1.50822,-4.552 z m 57.54682,-20.7971 q 9.9281,1.2611 15.69567,1.5383 h -0.008 l -24.07446,25.0668 8.3789,-26.609 z m -94.33494,9.1448 q 2.13994,7.6847 3.31461,15.7213 h -0.006 l -40.45282,-0.6115 v 0 l 37.13821,-15.1149 z m -11.00848,-26.8385 q 6.35534,11.4753 10.14639,23.8863 h -0.006 l -44.10468,17.9446 v 0 l -21.93093,-0.3324 v 0 l 55.88928,-41.5045 z m -21.07386,-28.378 q 0.80866,0.8019 1.60968,1.6209 10.5493,11.4625 17.9384,24.0798 h -0.006 l -59.39393,44.1027 v 0 l -23.0151,-0.3481 h -1.2e-4 l 62.86136,-69.4616 z m 432.55168,-12.9782 q 8.0487,6.1403 15.4663,13.7238 5.22925,5.6822 9.6826,11.6486 h -0.0109 l -92.6095,66.346 v 0 q -0.31005,-0.4313 -0.65442,-0.846 h -0.01 l 68.1255,-90.8785 z m -182.48365,29.0434 81.70165,57.5578 h -0.009 q 2.67554,4.4712 5.80445,9.3907 h -0.01 l -0.67516,0.023 h -2.4e-4 l -102.3296,-36.9315 h -0.009 q 5.62574,-15.9152 15.51804,-30.0475 z m -184.11635,61.1149 q -0.33766,0.2748 -0.66844,0.5537 v 0 q 0.0916,-0.2836 0.18324,-0.5633 h -0.007 l 0.48543,0.01 z m 393.5504,-62.3156 q 11.7288,16.4583 17.66104,35.0334 h -0.0108 l -109.5258,34.8437 h -2e-4 q -0.3103,-1.7711 -1.0269,-3.3778 h -0.01 l 92.90185,-66.5061 z m -662.46999,12.578 100.83812,41.6866 h -0.005 q -0.10048,0.087 -0.20078,0.1762 -3.60522,3.4071 -5.7502,7.4573 h -1.6e-4 l -107.28335,-18.0536 h -0.004 q 4.0762,-16.525 12.40156,-31.2739 z m 681.02469,25.3786 q 5.0736,17.358 5.1747,36.5309 h -0.0112 l -115.47351,-0.1432 v 0 q 0.0776,-0.6001 0.11108,-1.216 0.002,-0.081 0.003,-0.1598 h -0.01 l 110.19445,-35.0188 z m -244.4907,-3.8136 95.1517,34.339 v 0 l -101.51194,3.7939 v 0 q 0.003,-0.6781 0.0126,-1.3565 0.68371,-19.4287 6.33936,-36.7811 z m -198.3595,27.7049 h -1.6e-4 q -0.34521,1.6209 -0.69584,3.2712 h -0.006 l -68.92346,2.2867 h -1.4e-4 l 15.68642,-6.3844 v 0 l 53.93332,0.8175 z m -61.76563,-0.9397 -16.70017,6.7958 v 0 l -9.05245,0.2975 h -1.5e-4 l 9.8814,-7.3401 h -1.5e-4 z m -20.90057,-0.3182 -9.94266,7.3835 h -1.2e-4 q -0.9885,-4.0036 -3.19102,-7.5849 h -0.005 z m 81.31555,7.6141 v 0 q -1.06171,5.0033 -2.16882,10.2485 h -3.1e-4 l -75.27588,-7.3155 v 0 l 0.97766,-0.3994 h 1.6e-4 l 76.46078,-2.542 z m -249.9241,-21.3692 106.67682,17.9499 h -0.005 q -0.56427,1.4693 -0.95554,3.0177 h -0.005 l -108.8337,7.9819 h 1.5e-4 q -0.0262,-1.9878 0.001,-3.9927 0.45517,-12.9424 3.11724,-24.9642 z m 552.47325,24.4209 2.099,0.7572 h -0.009 q -0.0437,2.7922 0.7877,5.2378 h -0.01 l -106.73376,33.5473 v 0 q -5.01636,-16.8762 -5.3157,-35.4678 h -0.009 z m 146.8022,6.291 q -0.774,21.088 -7.4205,39.7325 v 0 l -109.1964,-38.7746 h -0.01 q 0.2445,-0.5443 0.4426,-1.1051 h -0.01 l 116.18286,0.1403 z m -582.34427,19.7048 q 1.60777,1.094 3.32627,1.9326 h -0.005 l -4.56482,7.4342 v 0 l 1.23855,-9.3725 z m -11.81607,-26.3377 q -0.1644,1.2069 -0.23343,2.456 -0.0331,0.9829 -0.005,1.9451 h -0.005 l -103.77653,32.4093 h 1.4e-4 q -3.629,-13.8738 -4.14496,-28.878 h -0.004 l 108.16388,-7.9398 z m 45.12644,24.1652 0.73507,0.3715 v 0 l 8.06375,16.0988 v 0 l -16.11297,-11.8434 h -0.005 q 3.90399,-1.6775 7.31409,-4.6349 z m 7.93893,-12.1479 86.86325,8.4319 h -0.006 q -0.22085,1.0501 -0.44356,2.1111 v 0 l -6.95621,-0.7433 q -20.87247,24.6073 -14.77258,35.6172 v 0 l -69.60587,-35.1779 v 0 l -0.38913,-0.7792 h -0.006 q 3.66702,-4.2574 5.31063,-9.4695 z m -17.33597,19.0461 21.20486,15.5833 v 0 l 7.20145,14.3774 h -1.5e-4 l -18.18787,-1.9386 q -6.36859,-16.1474 -10.22348,-28.0261 z m 26.61871,19.5611 16.24863,11.9412 h -3e-4 l -10.84687,-1.1572 h -1.5e-4 z m -11.90561,-23.7727 75.04801,37.9255 h -0.006 q 1.69773,1.1128 3.70331,2.1726 0.7908,0.4179 1.6196,0.8286 h -0.006 q -0.094,0.1602 -0.18853,0.3217 v 0 l -45.97375,-4.8984 v 0 l -25.29966,-18.5947 v 0 z M 749.437,1335.9886 q 0.0703,0.1155 0.14283,0.2309 h -0.01 l -91.55675,65.3932 v 0 q -10.25035,-15.1059 -15.71631,-31.9519 h -0.009 l 107.1389,-33.6807 z m 25.66725,1.5147 108.4801,38.5821 h -0.011 q -6.58766,17.1203 -18.23046,32.1389 h -2.5e-4 z m -480.63975,-2.0504 -86.70689,61.0263 v 0 q -8.55549,-14.1979 -13.06958,-29.8651 h -0.004 z m 97.31767,61.4029 33.3656,3.545 h -0.006 q -4.55842,6.9727 -10.1254,13.5268 v 0 z m 359.68426,-58.223 q 0.85097,0.8634 1.78113,1.5617 h -0.01 l -67.8577,90.6996 v 0 q -7.35556,-5.7613 -14.224,-12.7375 -6.25315,-6.8114 -11.3923,-14.029 h -0.009 l 91.7019,-65.5022 z m 20.68372,0.4432 91.29795,71.5549 h -0.011 q -5.00207,6.1634 -10.87563,11.9654 -7.6606,7.1149 -15.8678,12.8026 h 4e-4 l -65.64954,-95.3797 h -0.01 q 0.45505,-0.3548 0.89455,-0.7474 0.1069,-0.101 0.21165,-0.2035 z m -473.8541,-2.5753 q 1.4971,6.7965 6.43811,12.4062 0.93057,0.988 1.90844,1.8681 h -0.005 l -75.91353,74.0132 v 0 q -3.03285,-2.7691 -5.97596,-5.7581 -8.7885,-9.5725 -15.37634,-19.9466 h -0.004 l 88.92342,-62.5893 z m 70.42675,57.9048 17.0192,1.8085 h 1.3e-4 l 27.26574,20.035 h -0.006 q -3.26208,3.6756 -6.84903,7.2193 -7.86649,7.3067 -16.30925,13.1078 v 0 z m 384.3358,-48.8642 -34.334,104.2858 v 0 q -16.38354,-6.2119 -30.90844,-17.0697 h -0.009 z m 15.4353,-3.9215 65.6704,95.4972 h -0.0105 q -14.4481,9.5265 -30.55517,14.7207 h -3.6e-4 L 768.2516,1341.7316 h -0.01 q 0.12143,-0.059 0.24206,-0.1186 z m -462.15702,13.7204 -1.80148,13.6276 v 0 l -46.2621,75.3748 v 0 q -13.30943,-7.058 -25.26044,-17.5119 h -0.004 z m 451.00552,-12.9983 v 0 q 0.7903,0.2602 1.6221,0.4353 h -0.01 l -1.16858,115.1278 h -3.5e-4 q -19.0807,-1.037 -36.17677,-7.0329 h -0.009 l 35.73265,-108.5393 z m 8.01405,0.3832 35.32141,110.0201 h -0.0106 q -18.61768,5.4958 -39.4104,5.3088 -0.2013,-0.01 -0.40244,-0.013 h -0.01 l 1.1668,-114.9414 h -0.01 q 1.74167,-0.019 3.34497,-0.3823 z m -424.08683,48.7395 0.13758,0.039 23.70233,2.5182 v 0 l 22.17447,44.2743 h -0.006 q -13.01685,8.5034 -27.37467,13.5043 v 0 z m -37.71972,-15.0409 -10.59204,80.118 v 0 q -16.83481,-3.2517 -31.95261,-10.7939 h -0.005 z m 14.30645,-19.511 h 1.5e-4 q 2.81266,0.7433 5.87763,0.9075 0.14261,0 0.2843,0.01 1.76889,0.036 3.46433,-0.1212 h 0.005 q 0.94742,2.9773 2.23444,6.7144 h -0.005 l 27.28453,88.3502 h -0.006 q -15.56772,4.9893 -32.68268,5.9367 h -1.5e-4 l -6.46182,-101.8062 z m -3.00145,1.0911 6.40337,100.8497 h -0.005 q -3.176,0.1053 -6.40417,0.076 -9.6871,-0.2954 -18.87193,-1.8446 h -0.005 l 11.51194,-87.076 z M 630.71155,752.89655 q -16.71365,-0.33075 -30.45398,5.33075 -9.52017,3.2702 -34.41211,21.3623 12.07764,3.41705 22.69299,6.37714 l -1.5e-4,0.002 -19.4807,-4.9245 -0.008,0.002 q 2.88415,15.6087 5.81079,21.50486 3.18311,6.7693 8.15786,7.8859 1.4381,0.3634 3.15916,0.39726 0.30798,0.006 0.62487,0.002 l 0.008,0.002 q -0.30201,0.67795 -0.58705,1.38785 -4.1626,10.9146 -5.4078,26.5078 l -0.008,0.002 q -4.8013,1.3066 -10.3583,3.8416 -2.50805,0.6726 -38.15,18.82644 l -28.72454,13.14896 q -7.57576,3.68734 -13.78586,7.28805 -20.44213,11.784 -51.1537,36.69875 -20.89253,15.5317 -35.75178,38.33855 -16.61122,21.6914 -24.03696,42.66425 l 0.32956,0.0546 -0.006,0.002 q -9.11499,19.93889 -11.3175,30.33459 -3.34995,14.1947 1.23828,23.6353 3.5871,7.755 11.32895,13.9233 4.06592,3.2327 8.8186,5.7141 13.28692,5.3949 16.478,7.3385 h -0.006 q -0.17478,1.2872 0.16788,2.7347 l 24.22882,75.7665 -34.6646,51.9471 h -1.4e-4 q -32.78808,-21.5113 -73.91781,-23.0349 l -0.21302,-0.01 q -59.54669,-0.429 -102.09318,39.2142 -42.22098,41.171 -44.52062,100.0566 -0.69941,58.9473 39.26184,102.1849 41.59496,42.3529 99.9408,44.4687 59.547,0.474 102.12729,-39.1421 15.50494,-15.0991 25.63528,-32.5856 h 0.006 l 5.21216,0.5514 h -0.007 q 16.65915,9.3295 21.64862,11.5532 3.73938,1.7861 7.43885,3.379 h -0.007 l -2.1765,7.7018 22.35885,3.8748 0.57055,-4.0572 h 0.007 q 0.2749,0.078 0.54937,0.1568 11.98432,3.4368 20.35018,3.6022 2.8551,0.056 5.2882,-0.2688 10.3988,-1.6518 10.1735,-8.4365 -0.57936,-6.6563 -13.8447,-15.9511 -5.2277,-3.8574 -15.52934,-9.9815 h -0.007 q 12.75135,-0.6696 23.60828,-8.7343 13.83667,-10.9466 16.3353,-28.2939 2.02847,-17.5546 -8.44895,-31.5551 -0.36181,-0.4558 -0.73025,-0.8995 h -0.007 l 37.2491,-38.7892 h -0.008 q 2.12939,-1.0802 3.60107,-2.5903 1.30823,-1.5899 2.03977,-3.2697 h -0.008 l 108.715,-113.2038 h 0.009 q 5.5874,20.5295 10.3937,37.0557 h -0.009 q -16.38243,8.8324 -30.8087,22.2756 -42.2213,41.1703 -44.5209,100.0554 -0.6993,58.9488 39.2616,102.1866 41.5955,42.3517 99.94106,44.4679 59.54734,0.474 102.12734,-39.1421 42.25315,-41.1465 44.59117,-100.0312 0.73733,-58.9474 -39.19017,-102.2075 -41.55947,-42.3768 -99.9038,-44.5373 l -0.2122,-0.01 q -32.10814,-0.2312 -59.2733,11.1873 h -2.5e-4 q -5.53991,-19.1173 -11.9696,-42.9666 h -0.009 q 2.3579,-5.5239 -2.182,-8.2048 h -0.009 q -6.19324,-23.203 -13.17505,-50.5975 h -0.009 l 42.748,-5.1639 h 0.009 q 6.24124,7.7666 14.6161,18.4256 5.762,6.6841 9.91616,9.759 1.17284,1.0707 2.48634,1.8893 h -0.009 q -5.0685,5.96 -8.75856,9.1867 -6.73731,6.2964 -14.02271,10.0674 -6.17103,3.4102 -19.71523,7.0166 -1.37144,0.5631 -2.3689,1.6552 -2.65964,3.3019 -1.206,6.9501 1.8719,3.8153 5.8219,4.0325 28.63034,-5.1646 47.87155,-27.7614 3.3523,-3.6681 7.52915,-8.9418 h -0.01 q 4.77406,-0.8333 10.38,-3.1521 22.5176,-8.1157 22.7399,-19.6465 l 9.6e-4,-0.043 q 0.12439,-6.7115 -5.64586,-15.6834 h -0.0103 q 0.77884,-1.1689 1.57034,-2.3582 h -0.01 l 0.47132,-0.06 q 5.13757,-1.5655 5.08276,-6.9636 -0.80153,-5.2686 -6.20923,-5.9935 l -0.14746,-0.01 q -0.022,-6e-4 -0.044,0 -0.4865,-0.01 -0.9729,0.053 l -0.1347,0.016 v 0 q -0.5793,-0.1391 -1.213,-0.1878 h -0.12596 q -0.0315,0 -0.0633,0 -1.69496,-0.033 -3.1328,0.7389 h -0.01 l -6.9337,0.8331 v 0 q -1.02884,-0.8713 -2.0232,-1.589 -1.8522,-1.3479 -3.8887,-2.4213 -11.43664,-5.0131 -14.72424,-7.5216 -6.91456,-4.6056 -12.94372,-11.0705 -5.25928,-5.6275 -9.82654,-12.6367 l -18.249,-30.8463 q -4.58035,-7.40725 -8.6143,-12.53005 -9.431,-12.3839 -29.2247,-28.7483 l -3.7537,1.22653 3.87527,-2.11643 Q 662.349,941.416 655.87085,928.2528 648.8064,915.36176 642.41345,886.34863 l -0.0798,-0.34277 -1.13,-1.31909 6.8423,-5.88027 q 6.0117,0.95504 10.4852,1.04354 8.0834,0.15973 11.14175,-2.51184 1.9397,-1.61884 2.08945,-3.8636 0.3141,-1.63006 -0.8103,-7.52825 -0.0783,-0.66925 0.0927,-1.3371 0.15745,-0.4906 0.4795,-0.86835 2.4073,-2.3201 3.82455,-4.6208 1.55591,-2.45445 2.0138,-4.62474 0.30555,-1.59552 -0.1427,-2.82836 -0.32788,-1.1343 -1.92749,-3.3505 -0.0944,-0.1426 -0.003,-0.29105 l 0.009,0.003 q 5.74597,1.15987 7.433,1.1933 0.3778,0.007 0.55174,-0.0416 2.72836,-0.20015 3.49706,-1.84491 0.6576,-1.45694 -0.5293,-3.69104 l -1.2948,-1.9599 -4.6035,-5.7476 -2.11976,-3.0183 q -2.12124,-3.36856 -2.71094,-6.2932 -1.5079,-6.01286 2.5475,-18.42656 l 0.009,0.003 q 8.90976,1.5382 17.65429,2.6279 -5.1886,-17.47116 -11.69423,-27.174 l -0.0181,-0.0274 Q 663.0554,753.6095 631.00464,752.9027 q -0.14674,-0.003 -0.29309,-0.006 z"
             id="path514"
             style="fill:#e8505b;fill-opacity:1" /></g><g
           style="fill:#e8505b;fill-opacity:1;stroke-linejoin:miter"
           id="g520"
           transform="translate(-211.35654,21.636664)"><path
             d="m 234.00226,1142.6178 108.99344,2e-4 108.99344,3e-4 q 0,6.8844 0,13.7688 -108.99344,2e-4 -217.98688,5e-4 0,-6.8849 0,-13.7698"
             id="path518"
             style="fill:#e8505b;fill-opacity:1" /></g><g
           style="fill:#e8505b;fill-opacity:1;stroke-linejoin:miter"
           id="g524"
           transform="translate(-211.35654,21.636664)"><path
             d="m 219.67032,1071.9049 12.42671,4e-4 12.42674,2e-4 q 0,40.2633 0,80.5268 -12.42674,2e-4 -24.85345,3e-4 0,-40.2638 0,-80.5277"
             id="path522"
             style="fill:#e8505b;fill-opacity:1" /></g><g
           style="fill:#e8505b;fill-opacity:1;stroke-linejoin:miter"
           id="g528"
           transform="translate(-211.35654,21.636664)"><path
             d="m 199.22502,888.9438 85.94878,4e-4 85.94876,4.4e-4 q 0,128.12396 0,256.24786 -85.94879,4e-4 -171.89758,6e-4 2e-5,-128.1246 4e-5,-256.2493"
             id="path526"
             style="fill:#e8505b;fill-opacity:1" /></g><g
           style="fill:#e8505b;fill-opacity:1;stroke-linejoin:miter"
           id="g532"
           transform="translate(-211.35654,21.636664)"><path
             d="m 616.4458,801.64355 33.00195,25.12175 q 10.15601,-6.3698 17.3993,-13.0912 4.64905,-4.5027 5.84595,-9.4221 0.7848,-5.4306 -1.9607,-9.44176 -2.89624,-5.45964 -12.89417,-14.15654 20.29837,14.1149 26.80847,19.26055 12.2471,9.59585 13.641,11.17015 3.8539,3.4885 5.89306,6.1457 2.08594,2.4882 1.36904,4.3544 -0.2882,1.1256 -4.188,1.47477 -0.21375,0.0846 -3.491,-0.0831 -2.72824,-0.2122 -6.17954,-0.783 -4.70703,-0.6232 -20.51026,-4.46804 -9.3248,-2.34302 -19.228,-4.97302 l -35.5071,-11.10859"
             id="path530"
             style="fill:#e8505b;fill-opacity:1" /></g><g
           style="fill:#e8505b;fill-opacity:1;stroke-linejoin:miter"
           id="g536"
           transform="translate(-211.35654,21.636664)"><path
             d="m 593.4197,852.07385 -1.9452,10.04185 q -19.0006,-33.5571 -35.72804,-44.2503 -6.54666,-4.4631 -14.53601,-7.0679 l -8.44031,-2.024 q -8.84604,-1.50134 -19.67584,-0.4475 -5.43518,0.5506 -11.34653,1.7676 -45.93847,10.8604 -86.41974,40.1977 -19.54733,14.233 -31.60437,30.05135 -5.55404,7.05261 -9.6524,17.25245 l -2.6406,9.40716 q -3.12826,18.80714 4.34234,37.57954 12.0339,28.15605 33.01063,56.2828 L 593.4197,852.07385"
             id="path534"
             style="fill:#e8505b;fill-opacity:1" /></g><g
           style="fill:#e8505b;fill-opacity:1;stroke-linejoin:miter"
           id="g540"
           transform="translate(-211.35654,21.636664)"><path
             d="m 287.00958,1163.9977 v 0 l -9.41916,-278.35994 c -0.0699,-2.06562 1.54792,-3.7967 3.6135,-3.86656 2.06558,-0.07 3.79666,1.54783 3.86658,3.6134 v 0 l 9.41912,278.3599 c 0.0699,2.0657 -1.54788,3.7968 -3.61342,3.8666 -2.0656,0.07 -3.79673,-1.5479 -3.86662,-3.6134 z"
             id="path538"
             style="fill:#e8505b;fill-opacity:1" /></g><g
           style="fill:#e8505b;fill-opacity:1;stroke-linejoin:miter"
           id="g544"
           transform="translate(-211.35654,21.636664)"><path
             d="m 302.84354,882.86676 v 0 3.1e-4 c 0,0.15759 -0.01,0.31518 -0.0299,0.47163 v 0 L 267.257,1163.2206 c -0.26047,2.0503 -2.13367,3.5012 -4.18396,3.2406 -2.05026,-0.2604 -3.50116,-2.1337 -3.24072,-4.184 v 0 l 35.55666,-279.88175 -0.0298,0.47162 v -3.1e-4 c 0,-2.06676 1.67544,-3.74226 3.74216,-3.74226 2.06678,0 3.74222,1.6755 3.74222,3.74226 z"
             id="path542"
             style="fill:#e8505b;fill-opacity:1" /></g><g
           style="fill:#e8505b;fill-opacity:1;stroke-linejoin:miter"
           id="g11104"
           transform="translate(-211.35654,21.636664)"><path
             d="m 199.22502,888.9438 85.94878,4e-4 85.94876,4.4e-4 q 0,128.12396 0,256.24786 -85.94879,4e-4 -171.89758,6e-4 2e-5,-128.1246 4e-5,-256.2493"
             id="path11102"
             style="fill:#e8505b;fill-opacity:1" /></g></g></g></g></svg>
